HIERARCHY
ROOT Hips
{
	OFFSET 0.000000 103.266502 0.000000
	CHANNELS 6 Xposition Yposition Zposition Xrotation Yrotation Zrotation 
	JOINT Spine
	{
		OFFSET -0.002400 12.777504 0.315300
		CHANNELS 3 Xrotation Yrotation Zrotation
		JOINT Spine1
		{
			OFFSET -0.002067 5.816869 0.032633
			CHANNELS 3 Xrotation Yrotation Zrotation
			JOINT Spine1_split
			{
				OFFSET -0.002067 5.816869 0.032633
				CHANNELS 3 Xrotation Yrotation Zrotation
				JOINT Spine2
				{
					OFFSET -0.002067 5.816869 0.032633
					CHANNELS 3 Xrotation Yrotation Zrotation
					JOINT Neck
					{
						OFFSET -0.003700 21.199493 -0.826900
						CHANNELS 3 Xrotation Yrotation Zrotation
						JOINT Head
						{
							OFFSET 0.000000 20.442200 4.834800
							CHANNELS 3 Xrotation Yrotation Zrotation
							JOINT HeadTop_End
							{
								OFFSET 0.000000 34.668396 4.968400
								CHANNELS 3 Xrotation Yrotation Zrotation
								End Site
								{
									OFFSET 0.000000 0.000000 0.000000
								}
							}
						}
					}
					JOINT LeftShoulder
					{
						OFFSET 3.288150 8.794197 -1.372250
						CHANNELS 3 Xrotation Yrotation Zrotation
						JOINT LeftShoulder_split
						{
							OFFSET 3.288150 8.794197 -1.372250
							CHANNELS 3 Xrotation Yrotation Zrotation
							JOINT LeftArm
							{
								OFFSET 11.953299 -2.279007 -0.146200
								CHANNELS 3 Xrotation Yrotation Zrotation
								JOINT LeftForeArm
								{
									OFFSET 18.448900 0.000000 0.000000
									CHANNELS 3 Xrotation Yrotation Zrotation
									JOINT LeftHand
									{
										OFFSET 29.527798 0.000000 0.000000
										CHANNELS 3 Xrotation Yrotation Zrotation
										JOINT LeftHandThumb1
										{
											OFFSET 10.739754 -2.369614 9.225399
											CHANNELS 3 Xrotation Yrotation Zrotation
											JOINT LeftHandThumb2
											{
												OFFSET 4.926170 -2.844131 2.844125
												CHANNELS 3 Xrotation Yrotation Zrotation
												JOINT LeftHandThumb3
												{
													OFFSET 4.614891 -2.664413 2.664409
													CHANNELS 3 Xrotation Yrotation Zrotation
													JOINT LeftHandThumb4
													{
														OFFSET 4.432465 -2.559082 2.559083
														CHANNELS 3 Xrotation Yrotation Zrotation
														End Site
														{
															OFFSET 0.000000 0.000000 0.000000
														}
													}
												}
											}
										}
										JOINT LeftHandIndex1
										{
											OFFSET 26.467674 0.187653 6.405298
											CHANNELS 3 Xrotation Yrotation Zrotation
											JOINT LeftHandIndex2
											{
												OFFSET 8.792900 0.000000 0.000000
												CHANNELS 3 Xrotation Yrotation Zrotation
												JOINT LeftHandIndex3
												{
													OFFSET 10.075203 0.000000 0.000000
													CHANNELS 3 Xrotation Yrotation Zrotation
													End Site
													{
														OFFSET 0.000000 0.000000 0.000000
													}
												}
											}
										}
										JOINT LeftHandMiddle1
										{
											OFFSET 25.764404 0.000000 0.000000
											CHANNELS 3 Xrotation Yrotation Zrotation
											JOINT LeftHandMiddle2
											{
												OFFSET 9.393974 0.000000 0.000000
												CHANNELS 3 Xrotation Yrotation Zrotation
												JOINT LeftHandMiddle3
												{
													OFFSET 10.771950 0.000000 0.000000
													CHANNELS 3 Xrotation Yrotation Zrotation
													End Site
													{
														OFFSET 0.000000 0.000000 0.000000
													}
												}
											}
										}
										JOINT LeftHandRing1
										{
											OFFSET 24.660927 0.144547 -6.225808
											CHANNELS 3 Xrotation Yrotation Zrotation
											JOINT LeftHandRing2
											{
												OFFSET 9.393799 0.000000 0.000000
												CHANNELS 3 Xrotation Yrotation Zrotation
												JOINT LeftHandRing3
												{
													OFFSET 9.928497 0.000000 0.000000
													CHANNELS 3 Xrotation Yrotation Zrotation
													End Site
													{
														OFFSET 0.000000 0.000000 0.000000
													}
												}
											}
										}
										JOINT LeftHandPinky1
										{
											OFFSET 23.655350 0.125290 -12.815412
											CHANNELS 3 Xrotation Yrotation Zrotation
											JOINT LeftHandPinky2
											{
												OFFSET 8.425102 0.000000 0.000000
												CHANNELS 3 Xrotation Yrotation Zrotation
												JOINT LeftHandPinky3
												{
													OFFSET 8.147003 0.000000 0.000000
													CHANNELS 3 Xrotation Yrotation Zrotation
													End Site
													{
														OFFSET 0.000000 0.000000 0.000000
													}
												}
											}
										}
									}
								}
							}
						}
					}
					JOINT RightShoulder
					{
						OFFSET -3.249400 8.794197 -1.372250
						CHANNELS 3 Xrotation Yrotation Zrotation
						JOINT RightShoulder_split
						{
							OFFSET -3.249400 8.794197 -1.372250
							CHANNELS 3 Xrotation Yrotation Zrotation
							JOINT RightArm
							{
								OFFSET -11.953299 -2.279007 -0.146200
								CHANNELS 3 Xrotation Yrotation Zrotation
								JOINT RightForeArm
								{
									OFFSET -18.448900 0.000000 0.000000
									CHANNELS 3 Xrotation Yrotation Zrotation
									JOINT RightHand
									{
										OFFSET -29.527802 0.000000 0.000000
										CHANNELS 3 Xrotation Yrotation Zrotation
										JOINT RightHandThumb1
										{
											OFFSET -10.739754 -2.369614 9.225399
											CHANNELS 3 Xrotation Yrotation Zrotation
											JOINT RightHandThumb2
											{
												OFFSET -4.926170 -2.844131 2.844125
												CHANNELS 3 Xrotation Yrotation Zrotation
												JOINT RightHandThumb3
												{
													OFFSET -4.614891 -2.664413 2.664409
													CHANNELS 3 Xrotation Yrotation Zrotation
													JOINT RightHandThumb4
													{
														OFFSET -4.432465 -2.559082 2.559083
														CHANNELS 3 Xrotation Yrotation Zrotation
														End Site
														{
															OFFSET 0.000000 0.000000 0.000000
														}
													}
												}
											}
										}
										JOINT RightHandIndex1
										{
											OFFSET -26.467674 0.187653 6.405298
											CHANNELS 3 Xrotation Yrotation Zrotation
											JOINT RightHandIndex2
											{
												OFFSET -8.792900 0.000000 0.000000
												CHANNELS 3 Xrotation Yrotation Zrotation
												JOINT RightHandIndex3
												{
													OFFSET -10.075203 0.000000 0.000000
													CHANNELS 3 Xrotation Yrotation Zrotation
													End Site
													{
														OFFSET 0.000000 0.000000 0.000000
													}
												}
											}
										}
										JOINT RightHandMiddle1
										{
											OFFSET -25.764404 0.000000 0.000000
											CHANNELS 3 Xrotation Yrotation Zrotation
											JOINT RightHandMiddle2
											{
												OFFSET -9.393974 0.000000 0.000000
												CHANNELS 3 Xrotation Yrotation Zrotation
												JOINT RightHandMiddle3
												{
													OFFSET -10.771950 0.000000 0.000000
													CHANNELS 3 Xrotation Yrotation Zrotation
													End Site
													{
														OFFSET 0.000000 0.000000 0.000000
													}
												}
											}
										}
										JOINT RightHandRing1
										{
											OFFSET -24.660927 0.144547 -6.225808
											CHANNELS 3 Xrotation Yrotation Zrotation
											JOINT RightHandRing2
											{
												OFFSET -9.393799 0.000000 0.000000
												CHANNELS 3 Xrotation Yrotation Zrotation
												JOINT RightHandRing3
												{
													OFFSET -9.928497 0.000000 0.000000
													CHANNELS 3 Xrotation Yrotation Zrotation
													End Site
													{
														OFFSET 0.000000 0.000000 0.000000
													}
												}
											}
										}
										JOINT RightHandPinky1
										{
											OFFSET -23.655350 0.125290 -12.815412
											CHANNELS 3 Xrotation Yrotation Zrotation
											JOINT RightHandPinky2
											{
												OFFSET -8.425102 0.000000 0.000000
												CHANNELS 3 Xrotation Yrotation Zrotation
												JOINT RightHandPinky3
												{
													OFFSET -8.147003 0.000000 0.000000
													CHANNELS 3 Xrotation Yrotation Zrotation
													End Site
													{
														OFFSET 0.000000 0.000000 0.000000
													}
												}
											}
										}
									}
								}
							}
						}
					}
				}
			}
		}
	}
	JOINT LeftUpLeg
	{
		OFFSET 11.394100 -6.187798 -0.413800
		CHANNELS 3 Xrotation Yrotation Zrotation
		JOINT LeftLeg
		{
			OFFSET 0.430247 -32.302673 3.732800
			CHANNELS 3 Xrotation Yrotation Zrotation
			JOINT LeftFoot
			{
				OFFSET -0.430247 -48.264931 -6.423300
				CHANNELS 3 Xrotation Yrotation Zrotation
				JOINT LeftToeBase
				{
					OFFSET 4.230900 -16.068199 23.438400
					CHANNELS 3 Xrotation Yrotation Zrotation
					JOINT LeftToe_End
					{
						OFFSET 4.510700 0.695400 19.974600
						CHANNELS 3 Xrotation Yrotation Zrotation
						End Site
						{
							OFFSET 0.000000 0.000000 0.000000
						}
					}
				}
			}
		}
	}
	JOINT RightUpLeg
	{
		OFFSET -11.333700 -6.187798 -0.413800
		CHANNELS 3 Xrotation Yrotation Zrotation
		JOINT RightLeg
		{
			OFFSET -0.430392 -32.302628 3.733000
			CHANNELS 3 Xrotation Yrotation Zrotation
			JOINT RightFoot
			{
				OFFSET 0.430392 -48.264973 -6.423500
				CHANNELS 3 Xrotation Yrotation Zrotation
				JOINT RightToeBase
				{
					OFFSET -4.230900 -16.068199 23.438400
					CHANNELS 3 Xrotation Yrotation Zrotation
					JOINT RightToe_End
					{
						OFFSET -4.510700 0.695400 19.974600
						CHANNELS 3 Xrotation Yrotation Zrotation
						End Site
						{
							OFFSET 0.000000 0.000000 0.000000
						}
					}
				}
			}
		}
	}
}
MOTION
Frames: 4
Frame Time: 0.016667
0.228516 96.691345 -1.142467 5.048826 -15.678170 0.222261 23.097529 4.378416 -0.373284 3.699122 1.240175 -0.846330 0.000000 0.000000 0.000000 3.692588 1.312478 -0.857370 -12.698242 1.123397 2.281904 -14.088310 7.829662 -3.298853 0.000000 -0.000000 0.000000 7.811599 -20.950967 9.744740 0.000000 0.000000 0.000000 -33.643019 -3.124198 -85.445612 0.000013 -42.998302 -4.823168 -17.287082 -10.866543 -12.599012 -7.471943 1.860688 -7.166932 30.986997 27.310546 -4.510894 83.254658 13.297894 -10.940250 0.000001 0.000000 -0.000001 -4.713136 11.342531 -75.220955 -0.816398 3.074003 -46.874629 -0.000000 -0.000002 -0.000002 1.616660 16.582644 -84.688847 0.018014 0.022052 -72.884839 0.000002 0.000003 0.000000 -6.443159 23.132652 -76.210178 0.013348 0.983448 -51.003604 -0.000000 -0.000000 -0.000001 -17.098981 22.128954 -43.123198 0.019734 0.027030 -78.662886 0.000001 -0.000001 0.000001 13.917700 27.239894 -23.496421 0.000000 0.000000 0.000000 -43.128557 -5.411297 84.812228 0.000035 58.104597 5.767242 -18.206866 16.096507 8.636270 9.347166 2.810546 -11.364514 16.169050 -43.266007 15.843565 32.491838 -44.566756 5.661145 -0.000000 -0.000000 -0.000001 17.076788 -0.396530 31.924345 -0.204412 -0.284214 112.811564 -0.000000 -0.000001 -0.000001 9.205475 -5.035904 102.738073 0.014981 -0.019188 61.018506 0.000000 0.000002 0.000000 5.569150 -8.935224 107.329087 0.547984 -0.005791 41.263690 -0.000000 0.000000 -0.000000 6.511231 -17.148245 98.228010 0.007402 -0.015754 43.845716 -0.000001 0.000001 -0.000001 -36.433612 2.551127 9.726530 28.971921 4.961753 1.473139 3.205763 0.181134 -5.914144 -0.359400 -1.379839 -0.238585 0.000000 0.000000 -0.000000 -17.805060 -10.013014 -13.246095 29.508364 -6.824870 1.398183 -14.005441 -1.961671 11.326122 -1.225840 1.216090 -0.217468 -0.000000 -0.000000 -0.000000 
0.267201 96.681900 -1.162188 5.033544 -15.935538 0.246608 23.096722 4.414136 -0.374693 3.697006 1.270044 -0.848466 0.000000 0.000000 0.000000 3.690611 1.342610 -0.860967 -12.863708 1.675242 2.090667 -13.987701 8.414723 -3.310303 0.000000 -0.000000 -0.000000 7.686567 -20.788208 9.327150 0.000000 0.000000 0.000000 -33.679629 -3.519093 -85.304691 0.000012 -43.357272 -4.333586 -17.231585 -10.328811 -12.796299 -7.471943 1.860684 -7.166935 30.987001 27.310540 -4.510900 83.254651 13.297893 -10.940248 -0.000000 0.000000 0.000000 -4.711729 11.345196 -75.237471 -0.816399 3.074002 -46.874625 0.000000 0.000000 0.000001 1.623069 16.576318 -84.598662 0.017978 0.022025 -72.792625 0.000000 0.000002 0.000000 -6.615173 23.030162 -76.196375 0.013393 0.979937 -50.778652 0.000001 0.000002 0.000003 -17.265733 21.699665 -43.572116 0.019296 0.026938 -77.688757 -0.000000 0.000001 0.000002 13.325444 26.974529 -22.684435 0.000000 0.000000 0.000000 -43.270669 -4.158115 84.402690 0.000011 57.768046 5.603171 -18.560296 15.926143 8.602530 9.347163 2.810548 -11.364508 16.169050 -43.266011 15.843565 32.491838 -44.566752 5.661143 0.000003 0.000000 0.000000 17.076788 -0.396529 31.924345 -0.204412 -0.284213 112.811564 -0.000000 0.000001 -0.000000 9.205473 -5.035903 102.738073 0.014979 -0.019186 61.018499 0.000000 -0.000001 -0.000000 5.569145 -8.935225 107.329094 0.547984 -0.005791 41.263686 -0.000000 0.000000 0.000000 6.511227 -17.148247 98.228017 0.007402 -0.015753 43.845720 0.000001 -0.000000 -0.000000 -36.402391 2.521831 9.777744 29.043091 5.214077 1.450440 3.161966 0.187072 -5.950768 -0.335577 -1.319982 -0.249761 -0.000000 0.000000 0.000000 -17.954730 -10.042897 -13.284997 29.561844 -6.524235 1.336319 -13.970262 -1.947732 11.282814 -1.216012 1.216434 -0.216170 0.000000 -0.000000 -0.000000 
0.314222 96.662102 -1.197642 5.038164 -16.261227 0.284375 23.103376 4.467543 -0.372739 3.678784 1.304124 -0.850522 0.000000 0.000000 0.000000 3.672136 1.375553 -0.864476 -13.000393 2.224550 1.887412 -13.930412 9.001492 -3.326598 0.000001 0.000000 0.000000 7.549150 -20.634819 8.867777 0.000000 0.000000 0.000000 -33.753975 -3.967026 -84.994041 0.000038 -43.669661 -3.983632 -17.295449 -9.823971 -12.930752 -7.471944 1.860681 -7.166938 30.987004 27.310546 -4.510897 83.254651 13.297891 -10.940249 -0.000002 0.000000 0.000001 -4.710321 11.347920 -75.254375 -0.816397 3.074003 -46.874625 0.000001 0.000001 -0.000001 1.629761 16.569754 -84.504876 0.017946 0.022008 -72.696627 0.000002 -0.000000 0.000000 -6.793082 22.924048 -76.193410 0.013297 0.979875 -50.545217 -0.000001 0.000002 0.000003 -17.423649 21.254437 -44.081201 0.018844 0.026829 -76.662699 0.000001 -0.000001 0.000003 12.767486 26.735602 -21.908223 0.000000 0.000000 0.000000 -43.497752 -2.834419 83.950982 -0.000011 57.335729 5.420116 -18.961483 15.774163 8.544118 9.347167 2.810549 -11.364514 16.169050 -43.266011 15.843561 32.491838 -44.566752 5.661146 -0.000000 -0.000000 -0.000001 17.076786 -0.396528 31.924345 -0.204411 -0.284214 112.811564 -0.000000 0.000000 -0.000000 9.205473 -5.035901 102.738073 0.014980 -0.019187 61.018499 -0.000000 -0.000001 -0.000001 5.569145 -8.935223 107.329087 0.547985 -0.005789 41.263683 -0.000000 0.000000 0.000000 6.511228 -17.148247 98.228017 0.007402 -0.015753 43.845720 0.000001 -0.000002 -0.000000 -36.419675 2.555946 9.843361 29.147375 5.469042 1.457986 3.110829 0.192903 -5.996434 -0.283413 -1.290715 -0.296844 -0.000000 -0.000000 -0.000000 -18.168377 -9.960594 -13.355127 29.675208 -6.231845 1.346822 -13.934004 -1.929858 11.216176 -1.219857 1.216299 -0.216677 0.000000 -0.000001 -0.000000 
0.365052 96.637680 -1.241626 5.043341 -16.629890 0.330902 23.107765 4.519513 -0.373850 3.668305 1.344954 -0.853240 0.000000 0.000000 0.000000 3.661477 1.415972 -0.869070 -13.136370 2.786676 1.677591 -13.885456 9.606063 -3.354276 0.000000 -0.000000 -0.000000 7.406726 -20.484200 8.380330 0.000000 0.000000 0.000000 -33.834449 -4.568844 -84.564128 0.000027 -43.951748 -3.707973 -17.514622 -9.378002 -12.968272 -7.471945 1.860685 -7.166933 30.986997 27.310540 -4.510896 83.254658 13.297891 -10.940252 -0.000004 0.000000 0.000001 -4.708826 11.350792 -75.272195 -0.816397 3.074003 -46.874629 -0.000001 0.000001 0.000002 1.633142 16.563854 -84.406358 0.017907 0.022017 -72.597172 -0.000001 0.000000 0.000001 -6.976360 22.814637 -76.199578 0.013211 0.979802 -50.303367 0.000001 -0.000002 -0.000001 -17.571334 20.794176 -44.643387 0.018378 0.026712 -75.590045 -0.000000 0.000000 0.000000 12.246194 26.525443 -21.177145 0.000000 0.000000 0.000000 -43.721363 -1.487018 83.438636 -0.000013 56.901722 5.282960 -19.419546 15.653895 8.438910 9.347168 2.810549 -11.364514 16.169052 -43.266011 15.843561 32.491845 -44.566756 5.661140 0.000001 0.000000 -0.000000 17.076786 -0.396530 31.924342 -0.204413 -0.284214 112.811557 0.000000 -0.000001 -0.000000 9.205475 -5.035902 102.738073 0.014981 -0.019186 61.018499 -0.000000 -0.000001 0.000000 5.569149 -8.935222 107.329087 0.547985 -0.005791 41.263686 -0.000000 0.000003 0.000000 6.511228 -17.148247 98.228010 0.007401 -0.015752 43.845716 0.000000 0.000000 0.000000 -36.428315 2.525995 9.925954 29.269393 5.816628 1.422152 3.055820 0.196952 -6.049276 -0.275275 -1.244938 -0.295518 0.000000 0.000000 0.000000 -18.452331 -9.994807 -13.440724 29.810057 -5.785405 1.300775 -13.896579 -1.906938 11.129132 -1.204932 1.211276 -0.209831 0.000000 -0.000003 0.000000 
